<svg xmlns="http://www.w3.org/2000/svg" width="41.904" height="41.904" viewBox="0 0 41.904 41.904">
  <g id="Group_345" data-name="Group 345" transform="translate(-778.229 -365.158)">
    <g id="Group_341" data-name="Group 341" transform="translate(90 56)">
      <g id="Group_323" data-name="Group 323" transform="translate(223.328 21.307)">
        <g id="Group_316" data-name="Group 316" transform="translate(-1 1.336)">
          <g id="Group_305" data-name="Group 305" transform="translate(52 -1.336)">
            <g id="Group_303" data-name="Group 303">
              <g id="Group_301" data-name="Group 301" transform="translate(100.975 2)">
                <g id="Group_289" data-name="Group 289" transform="translate(49 -2)">
                  <path id="Path_238" data-name="Path 238" d="M20.952,0A20.952,20.952,0,1,1,0,20.952,20.952,20.952,0,0,1,20.952,0Z" transform="translate(263.926 287.851)" fill="#f2f8ff"/>
                </g>
              </g>
            </g>
          </g>
        </g>
      </g>
    </g>
    <g id="play-button_2_" data-name="play-button (2)" transform="translate(791.911 374.636)">
      <path id="Path_256" data-name="Path 256" d="M21.246,9.437,5.3.364A2.189,2.189,0,0,0,1.889,2.353V21.294a2.1,2.1,0,0,0,2.02,2.342A2.67,2.67,0,0,0,5.3,23.209l16.013-9.8A2.346,2.346,0,0,0,22.555,11.4,2.339,2.339,0,0,0,21.246,9.437Zm-1.007,2.219-16.012,9.8a1.019,1.019,0,0,1-.251.116,1.065,1.065,0,0,1-.031-.278V2.354a1.522,1.522,0,0,1,.035-.318.8.8,0,0,1,.311.115L20.23,11.224c.2.112.255.21.274.189A.689.689,0,0,1,20.239,11.656Z" transform="translate(-3 0)" fill="#1fcec3"/>
    </g>
  </g>
</svg>
